<svg width="20.000000" height="20.000977" viewBox="0 0 20 20.001" fill="none" xmlns="http://www.w3.org/2000/svg" xmlns:xlink="http://www.w3.org/1999/xlink">
	<desc>
			Created with Pixso.
	</desc>
	<defs/>
	<path id="Vector" d="M4.16 17.5L10.83 17.5L10.83 20L4.16 20L4.16 17.5ZM12.5 20L15.83 20L15.83 17.5L12.5 17.5L12.5 20ZM9.16 15.83L15.83 15.83L15.83 13.33L9.16 13.33L9.16 15.83ZM4.16 13.33L4.16 15.83L7.5 15.83L7.5 13.33L4.16 13.33ZM20 10.39C20 8.9 19.46 7.44 18.48 6.31C17.5 5.18 16.13 4.45 14.65 4.25C14.13 3.01 13.27 1.95 12.16 1.19C11.05 0.44 9.75 0.02 8.4 0C7.52 -0.02 6.64 0.14 5.82 0.47C5 0.8 4.26 1.29 3.63 1.91C3 2.53 2.51 3.27 2.17 4.09C1.83 4.9 1.66 5.78 1.66 6.66C1.66 7.19 1.69 7.72 1.77 8.24C1.22 8.69 0.77 9.26 0.46 9.91C0.15 10.56 -0.01 11.27 0 11.99L0 11.99C0 12.02 0 12.05 0 12.08C0 12.95 0.24 13.81 0.68 14.56C1.12 15.32 1.74 15.94 2.5 16.38L2.5 12.08C2.5 12.05 2.5 12.02 2.5 11.99L2.5 11.99C2.49 11.56 2.61 11.13 2.84 10.77C3.06 10.4 3.38 10.11 3.77 9.91L4.77 9.4L4.37 8.35C4.2 7.81 4.13 7.23 4.16 6.66C4.15 6.11 4.26 5.56 4.47 5.04C4.68 4.53 5 4.06 5.39 3.67C5.79 3.28 6.26 2.98 6.78 2.78C7.3 2.57 7.85 2.48 8.4 2.5C9.35 2.54 10.26 2.87 11.01 3.46C11.75 4.05 12.29 4.86 12.55 5.77L12.8 6.63L13.71 6.66C14.7 6.66 15.66 7.04 16.37 7.74C17.08 8.44 17.49 9.4 17.5 10.39L17.5 15.58C18.27 14.96 18.9 14.17 19.33 13.28C19.76 12.38 19.99 11.41 20 10.41L20 10.39Z" fill="#408077" fill-opacity="1.000000" fill-rule="evenodd"/>
</svg>
