<svg width="484" height="320" viewBox="0 0 484 320" fill="none" xmlns="http://www.w3.org/2000/svg">
<g clip-path="url(#clip0_149_1004)">
<path d="M372.581 147.495V213.313C372.581 215.825 370.535 217.866 368.019 217.866H51.5622C49.0454 217.866 47 215.825 47 213.313V71.8732C47 68.8608 48.2318 66.1216 50.2163 64.1487C52.2009 62.1758 54.9458 60.939 57.9569 60.939H106.27C108.787 60.939 110.833 62.9801 110.833 65.4917V208.768H308.741V72.1843C308.741 70.257 309.942 68.6028 311.645 67.9427L323.302 62.4186C325.575 61.3487 328.29 62.32 329.362 64.5888L331.422 68.9139L336.114 66.6906C338.387 65.6207 341.102 66.592 342.174 68.8608C342.25 69.0202 342.311 69.1795 342.371 69.3389L372.269 145.856C372.474 146.395 372.573 146.949 372.573 147.495H372.588H372.581ZM363.456 208.76V148.307L335.597 76.9875L331.202 79.0666C328.928 80.1365 326.214 79.1653 325.142 76.8965L323.081 72.5713L317.865 75.045V208.753H363.456V208.76ZM56.1244 208.76H101.716V70.0445H57.9569C57.455 70.0445 56.9988 70.2494 56.6642 70.5833C56.3297 70.9171 56.1244 71.3724 56.1244 71.8732V208.76Z" fill="#262F33"/>
<path d="M372.581 213.313V237.2C372.581 240.212 371.349 242.944 369.364 244.925C367.38 246.905 364.643 248.134 361.624 248.134H57.9569C54.9382 248.134 52.2009 246.905 50.2163 244.925C48.2318 242.944 47 240.212 47 237.2V213.313C47 210.801 49.0454 208.76 51.5622 208.76H368.019C370.535 208.76 372.581 210.801 372.581 213.313ZM363.456 237.2V217.866H56.1244V237.2C56.1244 237.701 56.3297 238.156 56.6642 238.49C56.9988 238.824 57.455 239.029 57.9569 239.029H361.616C362.118 239.029 362.574 238.824 362.909 238.49C363.243 238.156 363.449 237.701 363.449 237.2H363.456Z" fill="#262F33"/>
<path d="M201.879 293.351L191.249 279.124L146.152 305.105L201.879 293.351ZM196.138 270.443L209.794 288.715L223.45 270.443H223.465C224.819 268.637 227.351 268.075 229.366 269.236L302.528 311.388C304.338 312.283 305.387 314.317 304.961 316.381C304.452 318.839 302.042 320.41 299.578 319.901L209.794 300.962L120.147 319.871C118.239 320.326 116.178 319.514 115.144 317.731C113.882 315.561 114.627 312.784 116.801 311.524L189.987 269.358C191.986 268.053 194.686 268.508 196.138 270.443ZM217.702 293.351L273.459 305.112L228.339 279.116L217.702 293.351Z" fill="#262F33"/>
<path d="M231.662 243.589V273.167C231.662 274.252 231.282 275.246 230.651 276.028L213.451 299.042C211.946 301.053 209.087 301.47 207.072 299.968C206.684 299.679 206.357 299.338 206.091 298.966L188.838 275.884C188.23 275.064 187.934 274.108 187.934 273.159V243.582C187.934 241.07 189.979 239.029 192.496 239.029H227.108C229.624 239.029 231.67 241.07 231.67 243.582L231.662 243.589ZM222.538 271.657V248.142H197.05V271.657L209.794 288.707L222.538 271.657Z" fill="#262F33"/>
<path d="M110.84 208.76H308.748V79.3778L274.402 95.6464C272.129 96.7163 269.414 95.745 268.342 93.4762C267.704 92.1256 267.787 90.6156 268.449 89.3863C273.383 79.6509 279.459 70.4543 286.583 62.0165C292.286 55.2708 298.673 49.0107 305.699 43.3425H110.84V208.753V208.76ZM313.31 217.866H106.278C103.761 217.866 101.716 215.825 101.716 213.313V38.7973C101.716 36.2857 103.761 34.2445 106.278 34.2445H312.056C313.759 34.2521 315.394 35.2158 316.169 36.8624L317.287 39.2146C317.66 39.8748 317.872 40.6336 317.872 41.4455V43.2363H317.865C317.865 44.6324 317.219 46.0135 316.002 46.9012C307.608 53.0779 300.103 60.1423 293.541 67.8972C289.952 72.1464 286.644 76.593 283.641 81.2216L311.067 68.2234C311.729 67.8516 312.489 67.6392 313.303 67.6392C315.819 67.6392 317.865 69.6803 317.865 72.192V213.321C317.865 215.832 315.819 217.873 313.303 217.873L313.31 217.866Z" fill="#262F33"/>
<path d="M170.628 114.207H248.953C252.101 114.207 254.96 115.489 257.028 117.553C259.096 119.617 260.381 122.47 260.381 125.611V178.166C260.381 181.307 259.096 184.16 257.028 186.224C254.96 188.288 252.101 189.57 248.953 189.57H170.628C167.48 189.57 164.621 188.288 162.553 186.224C160.484 184.16 159.199 181.307 159.199 178.166V125.611C159.199 122.47 160.484 119.617 162.553 117.553C164.621 115.489 167.48 114.207 170.628 114.207ZM248.953 123.312H170.628C169.997 123.312 169.426 123.57 169.008 123.987C168.59 124.405 168.331 124.981 168.331 125.604V178.158C168.331 178.788 168.59 179.357 169.008 179.774C169.426 180.192 170.004 180.45 170.628 180.45H248.953C249.584 180.45 250.154 180.192 250.573 179.774C250.991 179.357 251.249 178.78 251.249 178.158V125.604C251.249 124.974 250.991 124.405 250.573 123.987C250.154 123.57 249.576 123.312 248.953 123.312Z" fill="#262F33"/>
<path d="M209.794 62.5476C219.801 62.5476 228.887 66.6299 235.472 73.2011C242.057 79.7723 246.147 88.8475 246.147 98.8333V118.759C246.147 121.271 244.102 123.312 241.585 123.312H225.602C223.085 123.312 221.04 121.271 221.04 118.759V98.8333C221.04 95.7678 219.763 92.9602 217.717 90.919C215.672 88.8779 212.859 87.6031 209.787 87.6031C206.715 87.6031 203.901 88.8779 201.856 90.919C199.811 92.9602 198.533 95.7678 198.533 98.8333V118.759C198.533 121.271 196.488 123.312 193.971 123.312H177.988C175.471 123.312 173.426 121.271 173.426 118.759V98.8333C173.426 88.8475 177.517 79.7799 184.102 73.2011C190.686 66.6299 199.78 62.5476 209.787 62.5476H209.794ZM229.024 79.6433C224.089 74.7187 217.276 71.6532 209.794 71.6532C202.312 71.6532 195.499 74.7111 190.565 79.6433C185.622 84.5679 182.558 91.3667 182.558 98.8333V114.207H189.417V98.8333C189.417 93.2561 191.72 88.1646 195.408 84.4769C199.096 80.7891 204.198 78.4975 209.794 78.4975C215.391 78.4975 220.485 80.7967 224.173 84.4769C227.868 88.1646 230.164 93.2486 230.164 98.8257V114.199H237.023V98.8257C237.023 91.3591 233.959 84.5603 229.016 79.6357L229.024 79.6433Z" fill="#262F33"/>
<path d="M209.794 128.464C214.379 128.464 218.531 130.316 221.534 133.313C224.538 136.31 226.393 140.453 226.393 145.029C226.393 147.867 225.655 150.568 224.363 152.936C223.64 154.256 222.743 155.462 221.701 156.54L226.401 169.197C227.267 171.556 226.051 174.167 223.694 175.032C223.177 175.221 222.644 175.312 222.127 175.312H209.802H197.476C194.959 175.312 192.914 173.271 192.914 170.76C192.914 170.107 193.051 169.493 193.294 168.939L197.894 156.547C196.853 155.478 195.956 154.263 195.233 152.943C193.941 150.576 193.203 147.874 193.203 145.036C193.203 140.461 195.058 136.318 198.069 133.321C201.073 130.323 205.224 128.472 209.809 128.472L209.794 128.464ZM215.079 139.755C213.725 138.405 211.855 137.57 209.794 137.57C207.734 137.57 205.863 138.405 204.51 139.755C203.156 141.106 202.32 142.973 202.32 145.029C202.32 146.342 202.639 147.556 203.209 148.595C203.764 149.612 204.54 150.485 205.468 151.137C207.407 152.2 208.334 154.544 207.543 156.684L204.015 166.199H215.581L212.052 156.684H212.068C211.353 154.734 212.052 152.48 213.87 151.312C214.911 150.636 215.778 149.703 216.387 148.588C216.957 147.548 217.276 146.334 217.276 145.021C217.276 142.957 216.44 141.098 215.086 139.748L215.079 139.755Z" fill="#262F33"/>
<path d="M312.231 49.762C305.463 55.1343 299.304 61.1136 293.792 67.5937C290.104 71.934 286.713 76.4868 283.641 81.2141L319.18 64.3764L312.231 49.762ZM286.842 61.7206C293.875 53.4573 301.951 45.9073 310.999 39.2982C311.295 39.0478 311.63 38.8277 311.995 38.6608C314.268 37.5909 316.983 38.5621 318.055 40.8309L329.362 64.5965C330.434 66.8653 329.461 69.5742 327.187 70.6441L274.402 95.654C273.178 96.2307 271.711 96.2535 270.411 95.6009C268.167 94.4703 267.263 91.7386 268.396 89.5002C273.399 79.6055 279.573 70.2723 286.842 61.7282V61.7206ZM373.577 38.6001L409.109 21.7623C403.474 21.1401 397.795 20.8821 392.115 20.9884C383.644 21.1553 375.113 22.1417 366.635 23.9856L373.585 38.5925L373.577 38.6001ZM426.141 23.7504L373.356 48.7604C371.083 49.8303 368.368 48.859 367.296 46.5902L356.02 22.893C355.891 22.6274 355.784 22.339 355.701 22.0431C355.062 19.615 356.514 17.1337 358.948 16.4963C369.859 13.6356 380.937 12.1408 391.963 11.9283C403.231 11.7083 414.378 12.8313 425.175 15.2063C426.506 15.5099 427.684 16.3901 428.316 17.7104C429.388 19.9792 428.414 22.6881 426.141 23.758V23.7504Z" fill="#262F33"/>
<path d="M353.83 18.2794L315.88 36.2553L331.415 68.914L369.364 50.9381L353.83 18.2794ZM307.874 29.9953L354.051 8.11913C356.324 7.04923 359.039 8.02049 360.111 10.2893L379.553 51.1581C380.625 53.4269 379.652 56.1358 377.379 57.2057L331.202 79.0819C328.928 80.1518 326.214 79.1805 325.142 76.9117L305.699 36.0429C304.627 33.7741 305.6 31.0652 307.874 29.9953Z" fill="#262F33"/>
<path d="M430.779 182.134L394.449 199.351C393.232 199.928 391.955 200.239 390.64 200.277C389.339 200.322 388.054 200.087 386.784 199.586C385.507 199.086 384.412 198.365 383.5 197.447C382.572 196.513 381.857 195.413 381.371 194.161C381.34 194.085 381.31 194.009 381.287 193.933L333.817 72.4424C332.951 70.2039 333.977 67.7075 336.121 66.7059L364.703 53.1613C366.924 52.1142 369.555 53.0172 370.68 55.1645L435.045 168.734C435.722 169.925 436.125 171.177 436.261 172.475C436.398 173.78 436.261 175.077 435.858 176.36C435.455 177.634 434.809 178.78 433.942 179.782H433.95C433.098 180.768 432.041 181.557 430.794 182.149L430.779 182.134ZM390.563 191.133L426.894 173.916C426.962 173.886 427.015 173.848 427.053 173.803H427.061C427.076 173.787 427.099 173.719 427.137 173.613C427.175 173.507 427.19 173.431 427.183 173.393C427.183 173.347 427.152 173.287 427.107 173.211L364.749 63.185L343.816 73.1025L389.735 190.64C389.765 190.716 389.796 190.784 389.826 190.86C389.864 190.959 389.902 191.027 389.925 191.05C389.963 191.088 390.031 191.126 390.107 191.164C390.199 191.202 390.267 191.217 390.328 191.217C390.366 191.217 390.434 191.194 390.533 191.141L390.563 191.133Z" fill="#262F33"/>
<path d="M331.734 10.5928L323.879 14.3109L327.02 20.9124L334.874 17.1943L331.734 10.5928ZM315.873 8.05081L331.947 0.432488C334.22 -0.637416 336.935 0.333845 338.007 2.60265L345.056 17.4144C346.128 19.6832 345.154 22.3921 342.881 23.462L326.807 31.0803C324.533 32.1502 321.819 31.179 320.747 28.9102L313.698 14.0984C312.626 11.8296 313.599 9.12072 315.873 8.05081Z" fill="#262F33"/>
<path d="M269.719 67.9276C271.346 69.8322 271.11 72.6928 269.202 74.3091C267.293 75.9329 264.427 75.6977 262.807 73.7931L258.442 68.6712C256.815 66.7666 257.051 63.906 258.96 62.2897C260.868 60.6659 263.735 60.9011 265.354 62.8057L269.719 67.9276Z" fill="#262F33"/>
<path d="M259.606 80C262.115 80.1973 263.993 82.3826 263.795 84.8943C263.598 87.4059 261.408 89.2725 258.891 89.0752L252.177 88.5365C249.668 88.3392 247.79 86.1539 247.987 83.6422C248.185 81.1382 250.383 79.264 252.892 79.4613L259.606 80Z" fill="#262F33"/>
<path d="M261.035 95.6995C262.944 94.0757 265.81 94.3109 267.43 96.2155C269.057 98.1201 268.821 100.981 266.913 102.597L261.78 106.952C259.872 108.576 257.005 108.341 255.386 106.436C253.758 104.532 253.994 101.671 255.903 100.055L261.035 95.6995Z" fill="#262F33"/>
<path d="M273.133 105.799C273.33 103.295 275.528 101.421 278.037 101.618C280.546 101.815 282.424 104.001 282.226 106.512L281.687 113.213C281.489 115.717 279.291 117.591 276.782 117.394C274.273 117.196 272.395 115.011 272.593 112.499L273.133 105.799Z" fill="#262F33"/>
<path d="M288.872 104.365C287.245 102.46 287.481 99.5997 289.389 97.9834C291.298 96.3596 294.164 96.5948 295.784 98.4994L300.148 103.621C301.776 105.526 301.54 108.387 299.631 110.003C297.723 111.627 294.856 111.391 293.237 109.487L288.872 104.365Z" fill="#262F33"/>
</g>
<defs>
<clipPath id="clip0_149_1004">
<rect width="389.299" height="320" fill="white" transform="translate(47)"/>
</clipPath>
</defs>
</svg>
