<svg width="484" height="320" viewBox="0 0 484 320" fill="none" xmlns="http://www.w3.org/2000/svg">
<g clip-path="url(#clip0_149_1243)">
<path d="M95.4441 222.284C95.4441 222.284 92.1321 222.008 91.6721 217.316C91.2121 213.176 76.8601 81.5239 73.3641 49.0479C72.9041 44.9999 75.7561 41.4119 79.7121 40.7679L284.872 9.85592C288.368 9.30392 291.68 11.7879 292.14 15.2839C292.232 15.6519 292.232 16.1119 292.232 16.4799L286.712 150.892L95.4441 222.284Z" fill="#262F33"/>
<path d="M95.4439 222.928C95.3519 222.928 91.5799 222.56 91.0279 217.408C90.5679 213.176 75.6639 76.464 72.7199 49.1399C72.2599 44.7239 75.2959 40.7679 79.6199 40.1239L284.78 9.21195C288.644 8.65995 292.232 11.3279 292.784 15.1919C292.876 15.6519 292.876 16.02 292.876 16.48L287.356 150.892C287.356 151.168 287.172 151.352 286.896 151.444L95.6279 222.836C95.5359 222.928 95.4439 222.928 95.4439 222.928ZM285.792 10.408C285.516 10.408 285.24 10.408 284.872 10.5L79.8039 41.32C76.1239 41.8719 73.5479 45.1839 74.0079 48.8639C76.9519 76.2799 91.8559 212.992 92.3159 217.224C92.6839 220.904 94.8919 221.456 95.3519 221.548L286.068 150.34L291.588 16.388C291.68 13.168 289.196 10.5 286.068 10.316C285.884 10.408 285.884 10.408 285.792 10.408Z" fill="#262F33"/>
<path d="M95.4438 222.284L95.2598 227.988C95.2598 228.356 95.4438 228.724 95.7198 228.908L206.304 308.672C208.788 310.512 212.1 310.788 214.768 309.408L408.428 215.108C409.9 214.372 410.82 212.9 410.82 211.336V207.84L174.748 222.284H95.4438Z" fill="#262F33"/>
<path d="M211.088 310.88C209.248 310.88 207.408 310.328 205.844 309.224L95.2599 229.46C94.7999 229.092 94.5239 228.54 94.5239 227.988L94.7079 222.284C94.7079 221.916 94.9839 221.64 95.3519 221.64L174.656 221.548L410.636 207.104C410.82 207.104 411.004 207.196 411.096 207.288C411.188 207.38 411.28 207.564 411.28 207.748V211.244C411.28 213.084 410.176 214.832 408.52 215.568L214.952 309.96C213.756 310.604 212.468 310.88 211.088 310.88ZM95.9959 222.928L95.8119 227.988C95.8119 228.172 95.9039 228.264 95.9959 228.356L206.58 308.12C208.88 309.776 211.916 310.052 214.4 308.764L408.06 214.464C409.256 213.82 410.084 212.624 410.084 211.244V208.392L174.748 222.744L95.9959 222.928Z" fill="#262F33"/>
<path d="M96.0879 221.456L286.712 150.8L409.44 206C410.544 206.46 411.004 207.656 410.636 208.76C410.452 209.22 410.084 209.68 409.624 209.864L212.468 302.324C210.444 303.244 208.144 303.06 206.304 301.772L95.9039 223.204C95.4439 222.928 95.3519 222.284 95.6279 221.824C95.7199 221.64 95.9039 221.548 96.0879 221.456Z" fill="white"/>
<path d="M209.8 303.52C208.42 303.52 207.04 303.06 205.936 302.232L95.5357 223.664C95.0757 223.296 94.7997 222.744 94.8917 222.192C94.9837 221.64 95.3516 221.088 95.9036 220.904L286.528 150.248C286.712 150.156 286.804 150.156 286.988 150.248L409.716 205.448C411.096 206 411.74 207.564 411.188 208.944C410.912 209.588 410.452 210.048 409.808 210.416L212.652 302.876C211.732 303.336 210.812 303.52 209.8 303.52ZM286.62 151.536L96.1797 222.1C95.9957 222.192 95.9036 222.284 95.9036 222.468C95.9036 222.652 95.9957 222.744 96.0877 222.836L206.488 301.404C208.144 302.6 210.26 302.784 212.1 301.864L409.256 209.404C409.808 209.128 410.176 208.576 410.084 208.024C410.084 207.472 409.716 206.92 409.164 206.644L286.62 151.536Z" fill="#262F33"/>
<path d="M184.04 265.616C182.016 265.616 179.992 264.972 178.244 263.868L128.932 231.024C126.724 229.552 126.172 226.608 127.644 224.492C128.196 223.664 129.024 223.02 129.944 222.652L287.816 164.232C288 164.14 288.184 164.14 288.368 164.232L345.408 189.44C347.524 190.36 348.444 192.844 347.524 194.868C347.064 195.788 346.328 196.616 345.408 196.984L188.18 264.788C186.892 265.34 185.512 265.616 184.04 265.616ZM288.092 165.612L130.496 223.94C128.748 224.584 127.92 226.516 128.564 228.172C128.84 228.816 129.208 229.368 129.852 229.736L179.164 262.58C181.74 264.236 184.96 264.604 187.72 263.316L344.948 195.604C346.328 195.052 346.972 193.396 346.328 192.016C346.052 191.372 345.592 190.912 344.948 190.636L288.092 165.612Z" fill="#E3E5E6"/>
<path d="M283.584 261.016C283.216 261.016 282.848 260.924 282.48 260.74L253.592 245.56C252.488 244.916 252.028 243.536 252.58 242.432C252.856 241.972 253.224 241.604 253.684 241.42L309.62 217.132C311.276 216.396 313.116 216.488 314.772 217.224L342.28 230.012C343.476 230.564 343.936 231.944 343.384 233.14C343.108 233.6 342.74 234.06 342.28 234.244L284.504 261.016C284.228 260.924 283.86 261.016 283.584 261.016ZM310.264 218.328L254.328 242.616C254.052 242.8 253.776 243.076 253.776 243.444C253.776 243.812 253.96 244.088 254.236 244.272L283.124 259.452C283.4 259.544 283.676 259.544 283.952 259.452L341.728 232.772C342.188 232.496 342.372 231.944 342.096 231.484C342.004 231.3 341.912 231.208 341.728 231.116L314.22 218.328C312.932 217.776 311.46 217.776 310.264 218.328Z" fill="#E3E5E6"/>
<path d="M100.044 208.208L84.1279 53.832L286.804 19.976L279.444 143.348L100.044 208.208Z" fill="white"/>
<path d="M100.044 208.852C99.9519 208.852 99.8599 208.852 99.7679 208.76C99.5839 208.668 99.4919 208.484 99.4919 208.3L83.4839 53.924C83.4839 53.6479 83.6679 53.372 83.9439 53.28L286.62 19.424C286.804 19.424 286.988 19.424 287.08 19.608C287.172 19.7 287.264 19.884 287.264 20.068L279.904 143.348C279.904 143.624 279.72 143.808 279.536 143.9L100.228 208.76C100.228 208.76 100.136 208.852 100.044 208.852ZM84.7719 54.3839L100.596 207.472L278.892 142.98L286.16 20.712L84.7719 54.3839Z" fill="#262F33"/>
<path d="M107.68 165.612C107.496 165.612 107.312 165.52 107.128 165.336C106.852 165.06 106.944 164.6 107.22 164.324L249.82 37.456C250.096 37.18 250.556 37.272 250.832 37.548C251.108 37.824 251.108 38.284 250.832 38.56L108.232 165.52C108.048 165.52 107.864 165.612 107.68 165.612Z" fill="#E3E5E6"/>
<path d="M99.9519 83.6399C99.7679 83.6399 99.5839 83.5479 99.3999 83.4559C99.1239 83.1799 99.1239 82.7199 99.3999 82.4439L123.136 59.4439C123.412 59.1679 123.872 59.1679 124.148 59.4439C124.424 59.7199 124.424 60.1799 124.148 60.4559L100.412 83.4559C100.228 83.5479 100.136 83.6399 99.9519 83.6399Z" fill="#E3E5E6"/>
<path d="M107.68 121.084C107.496 121.084 107.22 120.992 107.128 120.808C106.852 120.532 106.944 120.072 107.22 119.796L120.284 109.4C120.56 109.124 121.02 109.216 121.296 109.492C121.572 109.768 121.48 110.228 121.204 110.504L108.14 120.9C107.956 120.992 107.864 121.084 107.68 121.084Z" fill="#E3E5E6"/>
<path d="M130.128 88.7L128.38 68.368L255.616 47.76V152.272L138.132 178.492V172.512L130.128 88.7Z" fill="#262F33"/>
<path d="M138.132 179.136C137.948 179.136 137.856 179.044 137.764 178.952C137.58 178.86 137.488 178.676 137.488 178.492V172.512L129.484 88.7921L127.644 68.4601C127.644 68.0921 127.828 67.816 128.196 67.724L255.432 47.024C255.616 47.024 255.8 47.0241 255.984 47.2081C256.168 47.3001 256.168 47.4841 256.168 47.6681V152.18C256.168 152.456 255.984 152.732 255.708 152.824L138.316 179.044L138.132 179.136ZM130.772 88.7001L138.776 172.42V177.664L254.972 151.72V48.4961L129.024 68.92L130.772 88.7001Z" fill="#262F33"/>
<path d="M131.324 100.66L128.84 73.8881L216.148 59.9041L195.908 126.052L131.324 100.66Z" fill="white"/>
<path d="M195.908 126.696C195.816 126.696 195.724 126.696 195.724 126.604L131.14 101.212C130.956 101.12 130.772 100.936 130.772 100.752L128.288 73.98C128.288 73.704 128.472 73.428 128.748 73.336L216.056 59.3521C216.24 59.3521 216.424 59.352 216.608 59.536C216.792 59.72 216.792 59.904 216.7 60.088L196.552 126.236C196.46 126.42 196.368 126.512 196.276 126.604C196.092 126.604 196 126.696 195.908 126.696ZM131.876 100.292L195.54 125.316L215.228 60.64L129.392 74.44L131.876 100.292Z" fill="#262F33"/>
<path d="M145.584 154.572C145.216 152.364 138.408 80.0521 138.408 80.0521L184.592 72.0481V63.3081L238.596 52.9121L242.828 58.6161L269.416 54.0161L270.888 121.452L145.584 154.572Z" fill="#E3E5E6"/>
<path d="M145.584 155.216C145.492 155.216 145.4 155.216 145.216 155.124C145.124 155.032 144.94 154.848 144.94 154.756C144.572 152.548 138.04 83.18 137.764 80.144C137.764 79.868 137.948 79.592 138.224 79.5L183.948 71.588V63.308C183.948 63.032 184.132 62.756 184.408 62.756L238.412 52.452C238.596 52.452 238.872 52.544 238.964 52.636L243.012 58.064L269.232 53.464C269.416 53.464 269.6 53.464 269.692 53.556C269.784 53.648 269.876 53.832 269.876 54.016L271.348 121.452C271.348 121.728 271.164 122.004 270.888 122.004L145.584 155.124C145.676 155.216 145.584 155.216 145.584 155.216ZM138.96 80.604C139.512 86.952 145.216 146.752 146.044 153.928L270.244 121.084L268.864 54.752L243.012 59.26C242.828 59.26 242.552 59.168 242.46 59.076L238.412 53.648L185.236 63.86V72.14C185.236 72.416 185.052 72.692 184.776 72.692L138.96 80.604Z" fill="#262F33"/>
<path d="M167.388 120.348L163.524 80.052L245.496 65.332V108.94L167.388 120.348Z" fill="white"/>
<path d="M167.388 120.992C167.296 120.992 167.112 120.9 167.02 120.9C166.928 120.808 166.836 120.624 166.836 120.532L162.972 80.2361C162.972 79.9601 163.156 79.6841 163.432 79.5921L245.404 64.8721C245.588 64.8721 245.772 64.8721 245.864 64.9641C245.956 65.0561 246.048 65.2401 246.048 65.4241V109.032C246.048 109.308 245.864 109.584 245.496 109.584L167.48 120.992H167.388ZM164.168 80.6041L167.94 119.796L244.944 108.48V66.1601L164.168 80.6041Z" fill="#262F33"/>
<path d="M155.428 152.272C155.06 150.064 155.428 85.7561 155.428 85.7561L207.776 76.6481V67.9081L261.78 57.5121L266.012 63.2161L285.24 58.9841L279.904 121.084L155.428 152.272Z" fill="#E3E5E6"/>
<path d="M155.428 152.824C155.336 152.824 155.244 152.824 155.06 152.732C154.968 152.64 154.784 152.456 154.784 152.364C154.416 150.156 154.692 88.332 154.784 85.756C154.784 85.48 154.968 85.204 155.244 85.204L207.132 76.188V67.908C207.132 67.632 207.316 67.356 207.592 67.356L261.596 57.052C261.78 57.052 262.056 57.052 262.148 57.236L266.196 62.664L285.056 58.524C285.424 58.432 285.7 58.708 285.792 58.984C285.792 59.076 285.792 59.076 285.792 59.168L280.456 121.268C280.456 121.544 280.272 121.728 279.996 121.82L155.52 152.916L155.428 152.824ZM155.98 86.216C155.888 107.376 155.796 145.832 155.98 151.536L279.444 120.716L284.688 59.812L266.196 63.86C265.92 63.952 265.736 63.86 265.552 63.676L261.504 58.248L208.328 68.46V76.74C208.328 77.016 208.144 77.292 207.868 77.292L155.98 86.216Z" fill="#262F33"/>
<path d="M181.188 134.332V85.02C181.188 85.02 267.024 69.564 267.3 70.3C267.576 71.036 267.3 137.736 267.3 137.736L181.188 134.332Z" fill="white"/>
<path d="M267.208 138.196L181.096 134.884C180.82 134.884 180.544 134.608 180.544 134.332V85.0201C180.544 84.7441 180.728 84.4681 181.004 84.4681C181.188 84.4681 202.716 80.6041 223.968 76.8321C267.484 69.1961 267.484 69.3801 267.76 70.1161C268.036 70.8521 267.852 117.588 267.76 137.736C267.76 137.92 267.668 138.012 267.576 138.196C267.484 138.196 267.392 138.196 267.208 138.196ZM181.74 133.688L266.656 137C266.748 115.288 266.84 75.7281 266.656 70.7601C260.768 71.3121 204.372 81.3401 181.74 85.3881V133.688Z" fill="#262F33"/>
<path d="M189.652 158.988C189.284 156.78 188.916 88.7921 188.916 88.7921L230.132 81.6161L231.972 74.4401L292.6 61.0081L296.832 66.7121L316.06 62.4801L310.724 124.58L189.652 158.988Z" fill="#E3E5E6"/>
<path d="M189.652 159.54C189.376 159.54 189.1 159.356 189.1 159.08C188.732 156.872 188.364 91.5521 188.364 88.7921C188.364 88.5161 188.548 88.2401 188.824 88.2401L229.672 81.1561L231.42 74.348C231.512 74.164 231.696 73.98 231.88 73.888L292.508 60.4561C292.692 60.4561 292.968 60.4561 293.06 60.6401L297.108 66.068L315.968 61.928C316.244 61.836 316.612 62.02 316.704 62.388C316.704 62.48 316.704 62.4801 316.704 62.5721L311.368 124.672C311.368 124.948 311.184 125.132 310.908 125.224L189.744 159.54H189.652ZM189.468 89.2521C189.56 111.608 189.836 152.364 190.112 158.252L310.172 124.212L315.416 63.308L296.924 67.3561C296.74 67.4481 296.464 67.3561 296.372 67.1721L292.324 61.744L232.432 74.9921L230.684 81.8921C230.592 82.0761 230.408 82.2601 230.224 82.3521L189.468 89.2521Z" fill="#262F33"/>
<path d="M130.128 88.7001L138.132 172.512L222.956 210.6L218.632 114.46L130.128 88.7001Z" fill="#408077"/>
<path d="M222.956 211.152C222.864 211.152 222.772 211.152 222.68 211.06L137.856 172.972C137.672 172.88 137.488 172.696 137.488 172.512L129.484 88.7C129.484 88.332 129.668 88.056 130.036 88.056C130.128 88.056 130.22 88.056 130.22 88.056L218.724 113.816C219 113.908 219.092 114.092 219.184 114.368L223.508 210.508C223.6 210.876 223.324 211.152 222.956 211.152C223.048 211.152 223.048 211.152 222.956 211.152ZM138.684 172.052L222.404 209.588L218.08 114.92L130.864 89.528L138.684 172.052Z" fill="#262F33"/>
<path d="M221.208 215.66L216.148 94.864L220.564 96.428L225.532 217.224L221.208 215.66Z" fill="#408077"/>
<path d="M225.532 217.776C225.44 217.776 225.44 217.776 225.348 217.776L221.024 216.212C220.84 216.12 220.656 215.936 220.656 215.66L215.596 94.864C215.596 94.68 215.688 94.496 215.872 94.404C216.056 94.312 216.24 94.22 216.424 94.312L220.932 95.876C221.116 95.968 221.3 96.152 221.3 96.428L226.268 217.132C226.268 217.316 226.176 217.5 225.992 217.592C225.808 217.776 225.624 217.776 225.532 217.776ZM221.76 215.2L224.888 216.304L220.012 96.796L216.7 95.692L221.76 215.2Z" fill="#262F33"/>
<path d="M225.532 217.224L348.26 169.752L349.916 65.332L220.564 96.428L225.532 217.224Z" fill="#408077"/>
<path d="M225.532 217.776C225.44 217.776 225.348 217.776 225.164 217.684C224.98 217.592 224.888 217.408 224.888 217.224L220.012 96.5201C220.012 96.2441 220.196 95.9681 220.472 95.9681L349.824 64.8721C350.1 64.7801 350.468 64.9641 350.56 65.3321C350.56 65.4241 350.56 65.4241 350.56 65.5161L348.904 169.936C348.904 170.212 348.72 170.396 348.536 170.488L225.808 217.868C225.716 217.776 225.624 217.776 225.532 217.776ZM221.208 96.8881L226.084 216.304L347.708 169.292L349.364 65.9761L221.208 96.8881Z" fill="#262F33"/>
<path d="M216.148 94.864L345.04 63.676L349.916 65.332L220.564 96.428L216.148 94.864Z" fill="#408077"/>
<path d="M220.564 97.0721C220.472 97.0721 220.472 97.0721 220.38 97.0721L215.872 95.5081C215.596 95.4161 215.412 95.0481 215.504 94.7721C215.596 94.5881 215.688 94.4041 215.964 94.4041L344.856 63.2161C344.948 63.2161 345.04 63.2161 345.224 63.2161L350.1 64.8721C350.376 64.9641 350.468 65.2401 350.468 65.4241C350.468 65.7001 350.284 65.8841 350.008 65.9761L220.656 97.0721H220.564ZM218.172 94.9561L220.564 95.7841L347.8 65.2401L345.04 64.3201L218.172 94.9561Z" fill="#262F33"/>
<path d="M277.88 138.38C276.684 138.38 275.58 137.92 274.752 137.092C273.832 136.356 273.372 135.16 273.372 133.964C273.464 131.848 272.636 113.632 272.636 113.448C272.636 113.08 272.82 112.804 273.096 112.712L307.78 102.316C307.964 102.224 308.24 102.316 308.424 102.408C308.608 102.5 308.7 102.776 308.7 102.96C308.7 103.788 308.7 123.108 308.7 124.396C308.608 126.236 307.688 127.892 306.216 128.996C304.468 130.376 280.456 137.828 278.34 138.104C278.248 138.288 278.064 138.38 277.88 138.38ZM274.108 114C274.2 117.128 274.936 132.124 274.844 134.056C274.844 134.792 275.212 135.528 275.764 135.988C276.408 136.632 277.328 136.908 278.248 136.816C280.456 136.448 304.008 129.088 305.388 127.984C306.584 127.156 307.32 125.868 307.32 124.488C307.32 123.384 307.32 108.02 307.32 104.064L274.108 114Z" fill="white"/>
<path d="M316.612 144.728C314.864 144.728 313.392 146.2 313.392 147.948C313.392 148.776 313.668 149.512 314.22 150.064C313.76 150.34 313.3 150.524 312.748 150.8C310.816 151.628 308.976 152.548 307.044 153.376C303.18 155.124 299.316 156.688 295.36 158.16C291.496 159.632 287.448 160.828 283.4 161.748C280.916 162.3 276.592 163.68 274.476 161.656C271.532 158.712 266.932 163.312 269.876 166.164C273.832 170.12 279.536 169.2 284.504 168.096C290.116 166.808 295.636 165.06 300.972 162.944C306.4 160.828 311.736 158.528 316.98 155.952C319.28 154.848 321.396 152.916 321.488 150.248C321.672 147.304 319.464 144.912 316.612 144.728Z" fill="#262F33"/>
</g>
<defs>
<clipPath id="clip0_149_1243">
<rect width="484" height="320" fill="white"/>
</clipPath>
</defs>
</svg>
