<svg width="484" height="320" viewBox="0 0 484 320" fill="none" xmlns="http://www.w3.org/2000/svg">
<g clip-path="url(#clip0_149_1445)">
<path d="M174.564 230.656L158.464 256.416L194.804 281.532L232.8 245.928C232.8 245.928 212.744 193.672 207.132 189.9C201.52 186.128 174.564 230.656 174.564 230.656Z" fill="white"/>
<path d="M194.804 282.268C194.712 282.268 194.528 282.268 194.436 282.176L158.096 257.06C157.82 256.876 157.728 256.508 157.912 256.14L174.012 230.38C175.024 228.724 197.932 191.004 205.66 189.256C206.304 189.072 206.856 189.164 207.408 189.532C213.204 193.396 232.524 243.72 233.352 245.836C233.444 246.112 233.352 246.388 233.168 246.572L195.172 282.176C195.172 282.176 194.988 282.268 194.804 282.268ZM159.384 256.324L194.804 280.796L232.064 245.836C226.36 231.116 211.18 193.488 206.764 190.544C206.488 190.36 206.212 190.36 206.028 190.452C200.048 191.832 181.74 220.168 175.208 231.024L159.384 256.324Z" fill="#262F33"/>
<path d="M155.336 158.804C155.336 158.804 153.128 175.824 160.396 183.46C167.664 191.096 192.32 193.212 193.792 195.788C195.264 198.364 222.128 266.168 226.084 270.124C230.04 274.08 246.416 267.916 258.744 256.324C258.744 256.324 230.592 193.58 229.672 188.152C228.752 182.724 237.768 159.54 237.768 148.96L155.336 158.804Z" fill="white"/>
<path d="M229.948 271.964C228.384 272.056 226.82 271.596 225.532 270.584C222.864 267.916 211.364 240.132 199.772 211.888C196.276 203.424 193.516 196.8 193.148 196.064C192.78 195.328 188.18 194.224 184.132 193.304C175.852 191.372 164.536 188.704 159.844 183.828C152.484 176.1 154.508 159.356 154.6 158.62C154.6 158.344 154.876 158.068 155.152 158.068L237.492 148.316C237.86 148.316 238.136 148.5 238.228 148.868C238.228 148.868 238.228 148.868 238.228 148.96C238.228 154.48 235.744 163.496 233.536 171.5C231.512 178.768 229.672 185.576 230.132 188.06C231.052 193.396 258.928 255.496 259.204 256.048C259.296 256.324 259.296 256.6 259.02 256.784C249.636 265.8 237.124 271.964 229.948 271.964ZM155.888 159.356C155.612 162.208 154.6 176.376 160.856 183C165.272 187.6 176.312 190.176 184.5 192.108C190.664 193.58 193.7 194.316 194.344 195.42C194.804 196.156 196.92 201.4 201.06 211.428C208.972 230.84 223.876 266.904 226.544 269.664C230.132 273.252 245.956 267.364 257.916 256.14C255.248 250.16 229.948 193.488 228.936 188.244C228.384 185.484 230.224 178.86 232.34 171.132C234.364 163.588 236.756 155.124 236.94 149.696L155.888 159.356Z" fill="#262F33"/>
<path d="M248.992 261.292C248.716 261.292 248.532 261.108 248.44 260.924L218.816 185.944C218.724 185.576 218.816 185.208 219.184 185.116C219.552 185.024 219.92 185.116 220.012 185.484L249.636 260.464C249.728 260.832 249.636 261.2 249.268 261.292C249.084 261.292 249.084 261.384 248.992 261.292Z" fill="#E3E5E6"/>
<path d="M227.464 160C224.888 163.312 223.324 167.268 223.048 171.5C222.772 178.032 230.868 191.924 230.868 191.924L249.636 180.148L240.528 158.16L227.464 160Z" fill="#262F33"/>
<path d="M230.868 192.568H230.684C230.5 192.568 230.408 192.384 230.316 192.292C229.948 191.74 222.128 178.124 222.404 171.5C222.68 167.176 224.244 163.036 226.912 159.632C227.004 159.54 227.188 159.448 227.28 159.448L240.252 157.608C240.528 157.608 240.804 157.7 240.988 157.976L250.096 179.964C250.188 180.24 250.096 180.608 249.82 180.792L231.052 192.568C231.144 192.568 230.96 192.568 230.868 192.568ZM227.832 160.644C225.44 163.772 223.968 167.636 223.692 171.5C223.508 177.02 229.58 188.336 231.052 191.004L248.808 179.872L240.068 158.804L227.832 160.644Z" fill="#262F33"/>
<path d="M251.2 239.488C251.2 239.488 264.172 228.356 256.904 222.468C256.904 222.468 261.596 211.704 249.636 210.14C249.636 210.14 253.5 198.272 244.116 195.42C234.732 192.568 216.24 207.932 214.308 213.544C212.376 219.156 220.564 220.076 226.636 217.408C226.636 217.408 217.804 222.56 219.368 226.24C221.576 231.668 229.028 229 234.824 227.344C234.824 227.344 224.244 233.14 231.236 238.568C236.572 242.708 249.084 234.428 249.084 234.428L251.2 239.488Z" fill="white"/>
<path d="M235.008 240.408C233.444 240.5 231.972 240.04 230.684 239.12C228.844 237.648 227.924 235.992 228.108 234.244C228.292 232.22 229.764 230.38 231.236 229.092C226.084 230.472 220.564 231.392 218.632 226.608C217.62 224.124 220.288 221.272 222.772 219.34C219.368 219.892 216.148 219.432 214.584 217.96C213.756 217.132 212.928 215.752 213.756 213.452C215.78 207.656 234.64 191.924 244.3 194.96C246.692 195.604 248.716 197.26 249.912 199.468C251.844 203.24 251.016 208.024 250.464 209.864C253.868 210.416 256.168 211.888 257.456 214.096C259.296 217.316 258.192 221.272 257.64 222.56C258.928 223.664 259.664 225.32 259.756 227.068C259.848 233.048 251.936 239.948 251.66 240.224C251.476 240.316 251.292 240.408 251.108 240.316C250.924 240.224 250.74 240.132 250.648 239.948L248.716 235.624C246.6 236.636 240.252 240.408 235.008 240.408ZM234.732 226.7C235.1 226.7 235.376 226.976 235.376 227.344C235.376 227.62 235.284 227.804 235.008 227.896C234.916 227.896 229.58 230.932 229.396 234.336C229.304 235.624 230.04 236.912 231.512 238.108C236.48 241.972 248.44 233.968 248.624 233.968C248.808 233.876 248.992 233.876 249.176 233.876C249.36 233.968 249.544 234.06 249.544 234.244L251.384 238.476C253.224 236.728 258.468 231.3 258.376 226.884C258.376 225.412 257.64 223.94 256.444 223.112C256.26 222.928 256.168 222.652 256.26 222.376C256.26 222.376 258.1 217.96 256.26 214.648C255.156 212.624 252.856 211.428 249.544 210.968C249.176 210.968 248.992 210.6 248.992 210.232V210.14C248.992 210.048 250.832 204.252 248.624 200.02C247.612 198.088 245.864 196.708 243.84 196.156C234.916 193.396 216.792 208.484 214.952 213.912C214.492 214.924 214.676 216.212 215.504 217.04C217.436 218.788 222.404 218.696 226.36 216.948C226.636 216.764 227.004 216.948 227.188 217.224C227.372 217.5 227.28 217.868 226.912 218.052C224.704 219.34 218.816 223.48 219.828 226.056C221.668 230.564 227.832 228.724 233.26 227.16L234.456 226.792L234.732 226.7Z" fill="#262F33"/>
<path d="M240.896 175.732C240.896 175.732 241.264 164.876 232.064 168.924C222.864 172.972 208.972 182.54 216.24 188.888C223.508 195.236 238.688 184.012 240.896 175.732Z" fill="white"/>
<path d="M221.392 191.464C219.276 191.556 217.344 190.82 215.688 189.44C214.032 188.152 213.204 186.128 213.572 184.104C214.584 177.572 225.9 170.948 231.696 168.372C234.456 167.176 236.756 167.084 238.504 168.28C241.632 170.396 241.448 175.548 241.448 175.824C241.448 175.916 241.448 175.916 241.448 176.008C239.884 181.804 232.432 188.796 225.44 190.912C224.244 191.28 222.864 191.464 221.392 191.464ZM235.652 168.74C234.456 168.74 233.352 169.108 232.248 169.568C225.716 172.42 215.688 178.768 214.86 184.288C214.584 185.944 215.32 187.508 216.608 188.52C219.184 190.82 222.68 190.36 225.164 189.624C231.604 187.692 238.78 181.068 240.252 175.732C240.252 175.18 240.16 170.948 237.86 169.384C237.216 168.924 236.48 168.74 235.652 168.74Z" fill="#262F33"/>
<path d="M171.804 235.072C171.804 235.072 182.108 206.46 184.408 201.584C188.272 193.396 197.472 182.448 205.384 184.748C213.296 187.048 229.856 194.684 223.14 199.928C216.976 204.712 202.808 197.536 202.808 197.536C202.808 197.536 206.396 212.716 199.22 221.18" fill="white"/>
<path d="M171.804 235.716C171.712 235.716 171.62 235.716 171.62 235.716C171.252 235.624 171.16 235.256 171.252 234.888C171.712 233.692 181.556 206.184 183.856 201.308C187.904 192.752 197.288 181.712 205.568 184.104C211.272 185.76 224.244 191.188 225.256 196.524C225.532 198.088 224.796 199.56 223.508 200.388C218.08 204.62 207.224 200.296 203.636 198.64C204.372 202.504 205.752 214.28 199.588 221.548C199.404 221.824 198.944 221.824 198.668 221.64C198.392 221.364 198.392 220.996 198.576 220.72C205.476 212.532 202.072 197.812 202.072 197.628C201.98 197.352 202.072 197.168 202.256 196.984C202.44 196.8 202.716 196.8 202.9 196.892C202.992 196.984 216.884 203.792 222.588 199.376C223.508 198.824 223.968 197.812 223.876 196.708C223.048 192.66 212.284 187.324 205.108 185.3C197.656 183.184 188.64 193.856 184.868 201.768C182.568 206.552 172.356 234.888 172.264 235.164C172.264 235.532 172.08 235.716 171.804 235.716Z" fill="#262F33"/>
<path d="M330.136 199.836C330.136 199.836 277.604 159.908 246.508 159.172C238.688 159.08 230.776 159.54 223.048 160.46C204.74 162.576 186.248 166.348 173.46 166.9C148.068 167.82 129.116 159.724 129.024 133.228C129.024 110.596 139.696 106.364 162.328 100.2C173.552 97.0718 195.08 93.9438 215.504 88.2398C227.924 84.7438 239.976 80.4198 248.9 74.5318C272.636 59.0758 290.3 23.7478 290.3 23.7478L330.136 199.836Z" fill="white"/>
<path d="M330.136 200.48C329.952 200.48 329.86 200.48 329.768 200.388C329.216 200.02 276.96 160.552 246.508 159.816C238.688 159.724 230.868 160.184 223.14 161.104C215.596 161.932 208.052 163.128 200.876 164.232C190.664 165.796 181.096 167.268 173.552 167.544C156.992 168.188 144.848 164.876 137.396 157.7C131.416 151.996 128.472 143.808 128.38 133.228C128.38 109.952 139.972 105.628 162.144 99.5558C166.836 98.2678 173.46 96.9798 181.004 95.4158C191.584 93.2998 203.452 90.9078 215.32 87.5958C229.856 83.5478 240.712 79.1318 248.532 73.9798C271.808 58.7998 289.472 23.8398 289.656 23.4718C289.748 23.1958 290.024 23.1038 290.3 23.1038C290.576 23.1038 290.76 23.3798 290.852 23.5638L330.688 199.56C330.78 199.836 330.688 200.112 330.412 200.296C330.412 200.48 330.228 200.48 330.136 200.48ZM243.748 158.528C244.668 158.528 245.68 158.528 246.508 158.528C259.48 158.804 277.604 165.796 300.236 179.228C313.944 187.324 325.26 195.42 329.032 198.272L290.024 25.6798C286.252 32.6718 269.968 61.5598 249.268 75.0838C241.356 80.2358 230.316 84.7438 215.688 88.8838C203.82 92.1958 191.86 94.5878 181.28 96.7038C173.736 98.1758 167.204 99.5558 162.512 100.844C140.34 106.916 129.668 110.872 129.668 133.32C129.668 143.532 132.612 151.444 138.224 156.872C145.4 163.772 157.268 166.992 173.368 166.348C180.82 166.072 190.48 164.6 200.6 163.036C207.868 161.932 215.412 160.828 222.956 159.908C229.856 158.988 236.848 158.528 243.748 158.528Z" fill="#262F33"/>
<path d="M227.464 160C209.064 162.116 186.248 165.704 173.46 166.9C144.296 169.568 130.772 163.312 129.024 136.908C127.276 109.676 139.696 106.364 162.328 100.2C173.552 97.072 195.08 93.944 215.504 88.24C215.504 88.24 207.868 102.5 211.18 127.616C212.836 139.852 218.632 151.26 227.464 160Z" fill="#262F33"/>
<path d="M162.42 168.096C151.012 168.096 143.192 165.98 137.948 161.38C132.152 156.412 129.116 148.684 128.38 136.908C126.632 109.308 139.144 105.812 161.868 99.5559L162.144 99.4639C166.836 98.1759 173.46 96.8879 181.004 95.3239C191.584 93.2079 203.452 90.8159 215.32 87.5039C215.596 87.4119 215.872 87.5039 215.964 87.6879C216.148 87.8719 216.148 88.1479 216.056 88.4239C215.964 88.5159 208.512 102.776 211.824 127.432C213.48 139.576 219.184 150.8 227.924 159.448C228.2 159.724 228.2 160.092 228.016 160.368C227.924 160.46 227.74 160.552 227.648 160.552C219.184 161.564 209.8 162.76 200.784 164.048C190.388 165.52 180.452 166.808 173.644 167.452C169.504 167.912 165.824 168.096 162.42 168.096ZM214.308 89.2519C202.9 92.3799 191.492 94.6799 181.28 96.7039C173.736 98.1759 167.204 99.5559 162.512 100.844L162.236 100.936C140.156 107.008 127.92 110.412 129.668 136.908C130.404 148.316 133.348 155.768 138.776 160.46C145.308 166.072 155.98 167.912 173.368 166.256C180.176 165.612 190.02 164.324 200.508 162.852C209.064 161.656 217.896 160.46 225.992 159.54C217.62 150.8 212.192 139.668 210.536 127.708C207.776 106.916 212.56 93.2999 214.308 89.2519Z" fill="#262F33"/>
<path d="M348.628 204.62C329.124 208.208 307.228 181.804 294.164 142.244C290.852 132.124 288.184 121.82 286.344 111.332C284.504 101.028 283.308 90.6318 282.756 80.1438C280.916 38.1918 292.14 5.62385 311.736 2.03585C335.932 -2.38015 363.9 39.3878 374.112 95.3238C384.324 151.26 372.824 200.204 348.628 204.62Z" fill="#408077"/>
<path d="M315.232 1.66788C338.6 1.66788 364.36 42.0559 374.02 95.3239C384.232 151.26 372.824 200.204 348.628 204.62C347.432 204.804 346.236 204.896 345.04 204.988C326.456 204.988 306.4 179.504 294.072 142.336C290.76 132.216 288.092 121.912 286.252 111.332C284.412 101.028 283.216 90.6319 282.664 80.1439C280.824 38.1919 292.048 5.62389 311.644 2.03589C312.84 1.75989 314.036 1.66788 315.232 1.66788ZM315.232 0.379883C313.944 0.379883 312.656 0.471884 311.46 0.747884C291.588 4.33588 279.536 36.2599 281.468 80.2359C282.48 101.488 286.344 122.556 292.968 142.704C305.756 181.344 326.272 206.276 345.132 206.276C346.42 206.276 347.708 206.184 348.904 205.908C361.14 203.7 370.616 190.728 375.584 169.568C380.46 148.776 380.368 122.28 375.4 95.0479C370.708 69.1959 361.968 45.3679 350.928 27.7959C339.704 10.1319 327.008 0.379883 315.232 0.379883Z" fill="#262F33"/>
<path d="M333.632 127.984L294.072 142.244C290.76 132.124 288.092 121.82 286.252 111.332C284.412 101.028 283.216 90.632 282.664 80.144H327.192L333.632 127.984Z" fill="white"/>
<path d="M333.61 128.052C339.751 127.208 343.26 115.832 341.447 102.643C339.633 89.455 333.185 79.4481 327.044 80.2923C320.903 81.1366 317.394 92.5124 319.207 105.701C321.02 118.889 327.469 128.896 333.61 128.052Z" fill="#E3E5E6"/>
<path d="M234.732 227.988C234.456 227.988 234.272 227.896 234.18 227.62C233.996 227.344 234.088 226.884 234.456 226.792C234.732 226.608 241.172 223.296 247.152 222.376C247.52 222.284 247.796 222.56 247.888 222.928C247.98 223.296 247.704 223.572 247.336 223.664C241.54 224.584 235.1 227.896 235.008 227.988C235.008 227.988 234.824 227.988 234.732 227.988Z" fill="#262F33"/>
<path d="M226.636 218.052C226.452 218.052 226.36 217.96 226.176 217.868C225.9 217.592 225.9 217.224 226.176 216.948C230.132 213.176 235.192 210.876 240.712 210.324C241.08 210.324 241.356 210.508 241.448 210.876C241.448 211.244 241.264 211.52 240.896 211.612C235.744 212.072 230.96 214.28 227.188 217.776C227.004 217.96 226.82 218.052 226.636 218.052Z" fill="#262F33"/>
<path d="M248.992 235.072C248.716 235.072 248.532 234.888 248.44 234.704C248.256 234.336 248.44 233.968 248.808 233.876L253.132 232.036C253.5 231.852 253.868 232.036 253.96 232.404C254.144 232.772 253.96 233.14 253.592 233.232L249.268 235.072C249.176 235.072 249.084 235.072 248.992 235.072Z" fill="#262F33"/>
<path d="M197.104 284.108C197.104 284.108 205.568 277.484 205.752 276.748C205.936 276.012 165.824 238.016 165.824 238.016L143.1 252.368L197.104 284.108Z" fill="#262F33"/>
<path d="M197.104 284.752C197.012 284.752 196.92 284.752 196.736 284.66L142.732 252.92C142.456 252.736 142.364 252.368 142.548 252C142.64 251.908 142.64 251.816 142.732 251.816L165.456 237.464C165.732 237.28 166.008 237.372 166.284 237.556C206.672 275.828 206.488 276.38 206.396 276.932C206.304 277.116 206.12 277.852 197.564 284.568C197.38 284.66 197.288 284.752 197.104 284.752ZM144.296 252.368L197.012 283.28C200.416 280.612 203.912 277.668 204.924 276.748C202.348 273.804 180.636 252.92 165.732 238.844L144.296 252.368Z" fill="#262F33"/>
<path d="M199.496 284.752L149.172 242.616L52.8481 303.52L168.584 319.62L199.496 284.752Z" fill="#408077"/>
<path d="M147.332 162.668C147.056 162.668 146.78 162.484 146.688 162.3C138.868 142.152 138.132 123.2 144.48 108.848C144.572 108.572 144.664 108.388 144.756 108.296C144.756 108.02 145.032 107.744 145.308 107.744C145.308 107.744 145.308 107.744 145.4 107.744C145.768 107.744 146.044 108.112 146.044 108.48C146.044 108.848 145.86 109.124 145.676 109.492C139.42 123.568 140.248 142.152 147.884 161.932C147.976 162.3 147.884 162.668 147.516 162.76C147.516 162.668 147.424 162.668 147.332 162.668Z" fill="white"/>
<path d="M171.988 103.972C171.62 103.972 171.344 103.696 171.344 103.328C171.344 102.96 171.528 102.684 171.896 102.684L200.232 97.1638C200.6 97.0718 200.876 97.2558 200.968 97.6238C201.06 97.9918 200.784 98.2678 200.508 98.3598L172.172 103.88L171.988 103.972Z" fill="white"/>
<path d="M171.988 109.492C171.712 109.492 171.436 109.308 171.344 108.94C171.252 108.572 171.528 108.296 171.896 108.204L200.232 102.592C200.6 102.5 200.968 102.684 201.06 103.052C201.152 103.42 200.968 103.788 200.6 103.88H200.508L172.172 109.492H171.988Z" fill="white"/>
<path d="M171.988 115.932C171.712 115.932 171.436 115.748 171.344 115.38C171.252 115.012 171.528 114.736 171.896 114.644L200.232 109.032C200.6 108.94 200.968 109.124 201.06 109.492C201.152 109.86 200.968 110.228 200.6 110.32H200.508L172.172 115.932H171.988Z" fill="white"/>
<path d="M116.788 231.944C116.42 231.944 116.144 231.668 116.144 231.392C114.856 217.224 103.264 206.828 92.7761 201.952C79.3441 195.604 53.4921 188.06 38.128 190.912C37.852 191.004 37.576 190.82 37.392 190.544C37.3 190.268 37.392 189.9 37.576 189.716L41.348 187.048C56.896 175.824 74.5601 163.22 76.952 142.796C80.632 110.32 53.952 80.8801 53.676 80.6041C53.492 80.4201 53.492 80.0521 53.676 79.7761C53.86 79.5001 54.136 79.4081 54.412 79.5921C54.78 79.7761 88.5441 93.8521 122.308 75.1761C155.52 56.7761 154.416 20.3441 154.416 19.9761C154.416 19.7001 154.508 19.5161 154.784 19.3321C155.06 19.2401 155.336 19.2401 155.52 19.4241C155.888 19.7001 189.56 49.0481 214.124 47.1161C245.588 44.6321 258.008 19.8841 258.1 19.6081C258.284 19.3321 258.652 19.1481 258.928 19.3321C259.204 19.5161 259.388 19.8841 259.204 20.1601C259.112 20.4361 246.324 45.8281 214.124 48.4041C191.216 50.2441 161.684 26.4161 155.612 21.2641C155.428 28.2561 153.036 59.5361 122.86 76.1881C93.6961 92.2881 64.44 84.3761 56.16 81.5241C61.956 88.6081 81.3681 114.644 78.1481 142.888C75.7561 163.864 57.9081 176.652 42.084 187.968L40.52 189.164C56.344 187.416 80.4481 194.592 93.3281 200.664C104.092 205.724 116.052 216.396 117.432 231.208C117.432 231.484 117.156 231.852 116.788 231.944Z" fill="#E3E5E6"/>
<path d="M311 310.42C310.816 310.42 310.632 310.328 310.54 310.236C310.264 309.96 285.7 284.844 249.728 289.628C249.36 289.72 249.084 289.444 248.992 289.076C248.992 288.708 249.176 288.432 249.544 288.34C281.192 284.108 304.192 302.6 310.08 307.936C308.792 299.656 307.044 267.272 347.432 239.12C370.432 223.112 407.508 228.632 424.16 235.532C408.612 217.316 394.536 195.972 401.804 174.536C408.428 154.94 438.236 133.32 444.492 128.904C400.792 115.104 382.484 91.0921 386.808 53.4641C386.808 53.0961 387.176 52.8201 387.544 52.9121C387.912 53.0041 388.188 53.2801 388.096 53.6481C383.772 90.9081 402.264 114.552 446.148 128.168C446.424 128.26 446.516 128.444 446.608 128.72C446.608 128.996 446.516 129.18 446.332 129.364C445.964 129.64 410.176 154.112 403.092 175.088C395.732 196.8 411.096 218.604 427.012 237.004C427.196 237.28 427.196 237.556 427.012 237.832C426.828 238.108 426.46 238.2 426.184 238.016C411.372 230.748 371.904 223.756 348.076 240.316C302.26 272.148 311.46 309.316 311.552 309.684C311.644 309.96 311.46 310.236 311.276 310.42C311.184 310.512 311.092 310.512 311 310.42Z" fill="#E3E5E6"/>
</g>
<defs>
<clipPath id="clip0_149_1445">
<rect width="484" height="320" fill="white"/>
</clipPath>
</defs>
</svg>
