<svg width="16.666748" height="20.000000" viewBox="0 0 16.6667 20" fill="none" xmlns="http://www.w3.org/2000/svg" xmlns:xlink="http://www.w3.org/1999/xlink">
	<desc>
			Created with Pixso.
	</desc>
	<defs/>
	<path id="Vector" d="M14.16 6.66L14.16 5.83C14.16 4.28 13.55 2.8 12.45 1.7C11.36 0.61 9.88 0 8.33 0C6.78 0 5.3 0.61 4.2 1.7C3.11 2.8 2.5 4.28 2.5 5.83L2.5 6.66L0 6.66L0 17.5C0 18.16 0.26 18.79 0.73 19.26C1.2 19.73 1.83 20 2.5 20L14.16 20C14.82 20 15.46 19.73 15.93 19.26C16.4 18.79 16.66 18.16 16.66 17.5L16.66 6.66L14.16 6.66ZM4.16 5.83C4.16 4.72 4.6 3.66 5.38 2.88C6.16 2.1 7.22 1.66 8.33 1.66C9.43 1.66 10.49 2.1 11.27 2.88C12.06 3.66 12.5 4.72 12.5 5.83L12.5 6.66L4.16 6.66L4.16 5.83ZM15 17.5C15 17.72 14.91 17.93 14.75 18.08C14.59 18.24 14.38 18.33 14.16 18.33L2.5 18.33C2.27 18.33 2.06 18.24 1.91 18.08C1.75 17.93 1.66 17.72 1.66 17.5L1.66 8.33L15 8.33L15 17.5Z" fill="#408077" fill-opacity="1.000000" fill-rule="nonzero"/>
	<path id="Vector" d="M7.5 11.66L9.16 11.66L9.16 15L7.5 15L7.5 11.66Z" fill="#408077" fill-opacity="1.000000" fill-rule="evenodd"/>
</svg>
