<svg width="24.000000" height="24.000000" viewBox="0 0 24 24" fill="none" xmlns="http://www.w3.org/2000/svg" xmlns:xlink="http://www.w3.org/1999/xlink">
	<desc>
			Created with Pixso.
	</desc>
	<defs/>
	<path id="Vector" d="M4.68 5.25L19.31 5.25C20.22 5.25 21 6.02 21 6.93C21 7.5 20.71 7.99 20.29 8.3L12.66 14.03C12.24 14.35 11.71 14.35 11.29 14.03L3.66 8.3C3.24 7.99 3 7.5 3 6.93C3 6.02 3.73 5.25 4.68 5.25ZM3 9.18L10.62 14.95C11.43 15.55 12.52 15.55 13.33 14.95L21 9.18L21 16.5C21 17.76 19.98 18.75 18.75 18.75L5.25 18.75C3.98 18.75 3 17.76 3 16.5L3 9.18Z" fill="#408077" fill-opacity="1.000000" fill-rule="evenodd"/>
</svg>
