<svg width="28.000000" height="28.000000" viewBox="0 0 28 28" fill="none" xmlns="http://www.w3.org/2000/svg" xmlns:xlink="http://www.w3.org/1999/xlink">
	<desc>
			Created with Pixso.
	</desc>
	<defs/>
	<path id="Vector" d="M20.69 8.79L15.48 14L20.69 19.2C21.1 19.7 21.1 20.19 20.69 20.69C20.19 21.1 19.7 21.1 19.2 20.69L14 15.48L8.79 20.69C8.29 21.1 7.8 21.1 7.3 20.69C6.89 20.19 6.89 19.7 7.3 19.2L12.51 14L7.3 8.79C6.89 8.29 6.89 7.8 7.3 7.3C7.8 6.89 8.29 6.89 8.79 7.3L14 12.51L19.2 7.3C19.7 6.89 20.19 6.89 20.69 7.3C21.1 7.8 21.1 8.29 20.69 8.79Z" fill="#E54545" fill-opacity="1.000000" fill-rule="evenodd"/>
</svg>
