<svg width="52.000000" height="11.000000" viewBox="0 0 52 11" fill="none" xmlns="http://www.w3.org/2000/svg" xmlns:xlink="http://www.w3.org/1999/xlink">
	<desc>
			Created with Pixso.
	</desc>
	<defs>
		<clipPath id="clip75_893">
			<rect id="ruso_logo" rx="0.000000" width="51.000000" height="10.000000" transform="translate(0.500000 0.500000)" fill="white" fill-opacity="0"/>
		</clipPath>
	</defs>
	<rect id="ruso_logo" rx="0.000000" width="51.000000" height="10.000000" transform="translate(0.500000 0.500000)" fill="#FFFFFF" fill-opacity="0"/>
	<g clip-path="url(#clip75_893)">
		<path id="Vector" d="M13.42 6.35L13.42 0.25L15.61 0.25L15.61 6.27C15.61 7.69 16.43 8.66 18 8.66C19.57 8.66 20.37 7.69 20.37 6.27L20.37 0.25L22.58 0.25L22.58 6.33C22.58 8.86 21.09 10.58 18 10.58C14.91 10.58 13.42 8.84 13.42 6.35Z" fill="#7A7E80" fill-opacity="1.000000" fill-rule="nonzero"/>
		<path id="Vector" d="M27.79 8.96L28.96 7.32C29.67 8.07 30.78 8.69 32.18 8.69C33.37 8.69 33.95 8.14 33.95 7.56C33.95 5.77 28.11 7 28.11 3.18C28.11 1.49 29.57 0.09 31.95 0.09C33.57 0.09 34.91 0.58 35.91 1.51L34.71 3.09C33.89 2.33 32.79 1.98 31.76 1.98C30.83 1.98 30.31 2.39 30.31 3C30.31 4.61 36.14 3.53 36.14 7.32C36.14 9.18 34.82 10.58 32.08 10.58C30.13 10.58 28.73 9.92 27.79 8.96Z" fill="#7A7E80" fill-opacity="1.000000" fill-rule="nonzero"/>
		<path id="Vector" d="M41.21 5.29C41.21 2.2 43.46 0 46.55 0C49.64 0 51.9 2.2 51.9 5.29C51.9 8.37 49.64 10.58 46.55 10.58C43.46 10.58 41.21 8.37 41.21 5.29ZM49.66 5.29C49.66 3.37 48.43 1.93 46.55 1.93C44.66 1.93 43.45 3.37 43.45 5.29C43.45 7.19 44.66 8.65 46.55 8.65C48.43 8.65 49.66 7.19 49.66 5.29Z" fill="#7A7E80" fill-opacity="1.000000" fill-rule="nonzero"/>
		<path id="Vector" d="M5.93 6.53C7.03 6.27 8.15 5.31 8.15 3.52C8.15 1.63 6.86 0.25 4.74 0.25L0 0.25L0 2.15L2.16 2.15L2.32 2.15L4.42 2.15C5.29 2.15 5.95 2.66 5.95 3.52C5.95 4.37 5.29 4.89 4.42 4.89L2.32 4.89L2.16 4.89L0 4.89L0 10.39L2.16 10.39L2.16 6.79L3.74 6.79L5.73 10.4L8.21 10.4L5.93 6.53Z" fill="#7A7E80" fill-opacity="1.000000" fill-rule="nonzero"/>
	</g>
</svg>
